# xmcd
#
# Track frame offsets:
#	150
#	40911
#	92029
#	140403
#	180901
#	217984
#	266422
#	294561
#	347674
#	358108
#
# Disc length: 4901 seconds
# Revision: 0
# Processed by: cddbd v1.5.2PL0 Copyright (c) Steve Scherf et al.
# Submitted via: dBpowerAMP V12.0
#
DISCID=9413230a
DTITLE=Neal Shusterman - Vollendet- Der Aufstand CD6
DYEAR=1900
DGENRE=
TTITLE0=Kapitel 1a - Starkey
TTITLE1=Kapitel 1b - Starkey
TTITLE2=Kapitel 1c - Starkey
TTITLE3=Kapitel 2a - Miracolina
TTITLE4=Kapitel 2b - Miracolina
TTITLE5=Kapitel 3a - Cam
TTITLE6=Kapitel 3b - Cam
TTITLE7=Kapitel 3c - Cam
TTITLE8=Kapitel 4 - Eltern
TTITLE9=Kapitel 5a - Connor
EXTD=
EXTT0=
EXTT1=
EXTT2=
EXTT3=
EXTT4=
EXTT5=
EXTT6=
EXTT7=
EXTT8=
EXTT9=
PLAYORDER=
